<svg width="134" height="42" viewBox="0 0 134 42" fill="none" xmlns="http://www.w3.org/2000/svg">
<path d="M21.1364 13.7841V9.72727H40.25V13.7841H33.125V33H28.2614V13.7841H21.1364ZM43.3977 9.72727H49.4659L55.875 25.3636H56.1477L62.5568 9.72727H68.625V33H63.8523V17.8523H63.6591L57.6364 32.8864H54.3864L48.3636 17.7955H48.1705V33H43.3977V9.72727ZM80.929 33H72.679V9.72727H80.9972C83.3381 9.72727 85.3532 10.1932 87.0426 11.125C88.732 12.0492 90.0313 13.3788 90.9403 15.1136C91.857 16.8485 92.3153 18.9242 92.3153 21.3409C92.3153 23.7652 91.857 25.8485 90.9403 27.5909C90.0313 29.3333 88.7244 30.6705 87.0199 31.6023C85.3229 32.5341 83.2926 33 80.929 33ZM77.5994 28.7841H80.7244C82.179 28.7841 83.4025 28.5265 84.3949 28.0114C85.3949 27.4886 86.1449 26.6818 86.6449 25.5909C87.1525 24.4924 87.4062 23.0758 87.4062 21.3409C87.4062 19.6212 87.1525 18.2159 86.6449 17.125C86.1449 16.0341 85.3987 15.2311 84.4062 14.7159C83.4138 14.2008 82.1903 13.9432 80.7358 13.9432H77.5994V28.7841ZM95.9602 33V9.72727H105.278C106.991 9.72727 108.419 9.98106 109.562 10.4886C110.706 10.9962 111.566 11.7008 112.142 12.6023C112.718 13.4962 113.006 14.5265 113.006 15.6932C113.006 16.6023 112.824 17.4015 112.46 18.0909C112.097 18.7727 111.597 19.3333 110.96 19.7727C110.331 20.2045 109.612 20.5114 108.801 20.6932V20.9205C109.688 20.9583 110.517 21.2083 111.29 21.6705C112.07 22.1326 112.703 22.7803 113.188 23.6136C113.672 24.4394 113.915 25.4242 113.915 26.5682C113.915 27.803 113.608 28.9053 112.994 29.875C112.388 30.8371 111.491 31.5985 110.301 32.1591C109.112 32.7197 107.646 33 105.903 33H95.9602ZM100.881 28.9773H104.892C106.263 28.9773 107.263 28.7159 107.892 28.1932C108.521 27.6629 108.835 26.9583 108.835 26.0795C108.835 25.4356 108.68 24.8674 108.369 24.375C108.059 23.8826 107.616 23.4962 107.04 23.2159C106.472 22.9356 105.794 22.7955 105.006 22.7955H100.881V28.9773ZM100.881 19.4659H104.528C105.203 19.4659 105.801 19.3485 106.324 19.1136C106.854 18.8712 107.271 18.5303 107.574 18.0909C107.884 17.6515 108.04 17.125 108.04 16.5114C108.04 15.6705 107.741 14.9924 107.142 14.4773C106.551 13.9621 105.71 13.7045 104.619 13.7045H100.881V19.4659Z" fill="#001B62"/>
<path d="M21 21H113" stroke="#0E2949" stroke-opacity="0.37" stroke-width="41" stroke-linecap="round"/>
</svg>
